# xmcd
#
# Track frame offsets:
#	150
#	9970
#	24525
#	36545
#	48725
#	59372
#	70935
#	83875
#	96090
#	108985
#	121292
#	131227
#	143585
#	159142
#	169860
#	179565
#	190907
#	203247
#	212697
#	225435
#
# Disc length: 3199 seconds
#
# Revision: 6
# Processed by: cddbd v1.5.2PL0 Copyright (c) Steve Scherf et al.
# Submitted via: EZCDAudioConverter 2.0.3.1
#
DISCID=170c7d14
DTITLE=Various Artist - Country Gold - Cd 3
DYEAR=1994
DGENRE=Country
TTITLE0=Hank Locklin - Please Help Me I'm Falling
TTITLE1=Jeannie C. Riley - Harper Valley P.T.A.
TTITLE2=Roy Drusky - Yes, Mr. Peters
TTITLE3=Billie Jo Spears - Misty Blue
TTITLE4=Ferlin Husky - Wings Of A Dove
TTITLE5=George Jones - White Lightning
TTITLE6=Bobby Bare - Tender Years
TTITLE7=Waylon Jennings - Don't Think Twice
TTITLE8=Merle Haggard - The Fightin' Side Of Me
TTITLE9=Jeanne Prudett - Satin Sheets
TTITLE10=Johnny Russell - In A Mansion Stands My Love
TTITLE11=Willie Nelson - Shelter Of My Arms
TTITLE12=Cal Smith - Country Bumpkin
TTITLE13=Charlie Rich - Who Will The Next Fool Be
TTITLE14=Leroy van Dyke - Honeycomb
TTITLE15=Kitty Wells - Hearbreak USA
TTITLE16=Travis - Dreamin
TTITLE17=Charley Pride - Kiss An Angel Good Morning
TTITLE18=Roger Miller - Heartaches By The Number
TTITLE19=Glen Campbell - Rhinestone Cowboy
EXTD=
EXTT0=
EXTT1=
EXTT2=
EXTT3=
EXTT4=
EXTT5=
EXTT6=
EXTT7=
EXTT8=
EXTT9=
EXTT10=
EXTT11=
EXTT12=
EXTT13=
EXTT14=
EXTT15=
EXTT16=
EXTT17=
EXTT18=
EXTT19=
PLAYORDER=
